<?xml version="1.0" standalone="no"?>
<!DOCTYPE svg PUBLIC "-//W3C//DTD SVG 20010904//EN"
 "http://www.w3.org/TR/2001/REC-SVG-20010904/DTD/svg10.dtd">
<svg version="1.0" xmlns="http://www.w3.org/2000/svg"
 width="1200.000000pt" height="696.000000pt" viewBox="0 0 1200.000000 696.000000"
 preserveAspectRatio="xMidYMid meet">
<metadata>
Created by potrace 1.15, written by Peter Selinger 2001-2017
</metadata>
<g transform="translate(0.000000,696.000000) scale(0.100000,-0.100000)"
fill="#000000" stroke="none">
<path d="M11427 6465 c-22 -7 -49 -23 -61 -34 -12 -12 -27 -21 -33 -21 -18 0
-90 -87 -115 -138 -34 -69 -31 -160 7 -238 39 -82 187 -229 274 -272 85 -42
172 -45 248 -6 72 35 166 138 188 205 44 131 -18 270 -181 411 -115 98 -225
130 -327 93z m104 -180 c44 -23 187 -162 221 -214 74 -116 -10 -214 -130 -152
-51 26 -167 134 -219 205 -62 85 -55 149 20 181 32 13 48 10 108 -20z"/>
<path d="M10905 5877 c-63 -67 -103 -218 -75 -287 40 -97 174 -94 216 6 37 88
-1 184 -72 184 -41 0 -43 12 -9 46 21 21 29 23 40 14 8 -7 15 -20 15 -30 0
-12 11 -20 31 -24 47 -9 49 -8 49 25 0 66 -43 108 -109 109 -39 0 -49 -5 -86
-43z"/>
<path d="M9398 5583 c-21 -5 -21 0 -4 -54 8 -24 31 -97 51 -162 36 -116 36
-117 63 -111 15 4 28 8 30 9 1 1 -11 45 -27 97 l-28 96 45 -29 c70 -45 192
-62 192 -27 0 6 -5 28 -12 49 -11 39 -12 39 -62 39 -65 1 -112 18 -174 64 -27
20 -51 35 -53 35 -2 -1 -12 -3 -21 -6z"/>
<path d="M11174 5526 c-96 -42 -134 -154 -99 -290 41 -156 125 -290 202 -322
101 -43 219 25 237 135 13 83 -32 196 -100 247 -49 38 -120 44 -167 15 -19
-12 -38 -29 -42 -39 -7 -14 -9 -13 -15 8 -13 41 -11 105 3 124 24 32 71 16 93
-32 3 -6 104 53 104 60 0 14 -63 79 -91 94 -35 17 -84 18 -125 0z m183 -333
c59 -88 57 -173 -5 -173 -48 0 -102 73 -102 137 0 62 73 86 107 36z"/>
<path d="M9251 5256 c-11 -12 -7 -23 19 -58 50 -69 120 -176 120 -183 0 -4 -6
-5 -14 -2 -7 3 -26 -1 -42 -9 -23 -12 -29 -13 -33 -2 -2 7 -19 28 -37 46 -38
38 -87 43 -127 12 l-26 -20 -6 21 c-16 49 21 94 54 65 14 -13 20 -13 51 0 l35
15 -38 36 c-33 29 -44 34 -70 29 -45 -9 -76 -32 -95 -72 -15 -33 -15 -39 1
-101 26 -98 70 -169 113 -183 20 -7 47 -10 60 -7 19 3 27 -1 34 -17 11 -29 68
-84 110 -106 137 -70 247 -41 280 74 15 54 4 89 -38 129 -31 28 -113 73 -155
83 -18 4 -24 9 -17 14 8 5 -2 29 -34 78 -42 67 -44 71 -20 62 37 -15 160 -13
172 3 7 8 3 23 -14 50 -21 32 -28 36 -44 27 -39 -21 -129 -11 -211 24 -9 4
-21 1 -28 -8z m145 -334 c5 -5 35 -19 66 -31 66 -27 108 -61 108 -90 0 -29
-37 -35 -101 -17 -80 24 -149 70 -149 101 0 35 50 59 76 37z"/>
<path d="M9796 5235 c-127 -52 -188 -107 -202 -181 -19 -100 52 -200 149 -211
66 -8 153 35 174 85 34 82 26 153 -23 191 l-24 19 23 6 c59 16 99 1 112 -41 4
-15 0 -28 -14 -42 l-20 -20 25 -46 c14 -25 29 -45 34 -45 16 0 68 69 75 99 8
38 -9 95 -42 139 -55 73 -158 92 -267 47z m34 -165 c46 -46 6 -108 -74 -117
-42 -5 -46 -3 -57 21 -17 38 -2 75 41 97 44 24 65 24 90 -1z"/>
<path d="M11586 5112 c-3 -3 -6 -18 -6 -33 0 -23 6 -29 38 -40 50 -16 151 -78
163 -101 14 -26 48 -23 53 5 19 103 25 134 31 149 5 12 -1 18 -25 23 -17 4
-34 5 -36 2 -3 -3 -5 -32 -6 -66 l-1 -61 -34 35 c-47 48 -160 104 -177 87z"/>
<path d="M8880 4992 c-69 -34 -63 -123 8 -130 72 -7 140 88 76 104 -17 4 -22
9 -14 14 16 10 4 30 -18 30 -9 0 -33 -8 -52 -18z"/>
<path d="M10793 4986 c-115 -38 -195 -88 -262 -166 -65 -75 -81 -115 -81 -201
0 -149 111 -348 229 -408 128 -66 354 -14 479 109 69 68 83 98 89 191 5 67 3
82 -16 112 -65 106 -170 152 -293 127 -81 -15 -168 -62 -218 -116 l-39 -43
-11 37 c-24 88 0 155 68 195 47 27 110 26 134 -2 l17 -23 93 52 c51 29 95 55
98 57 11 11 -78 74 -124 88 -64 19 -77 19 -163 -9z m210 -418 c15 -18 33 -40
40 -48 17 -20 13 -82 -8 -114 -28 -42 -89 -69 -147 -64 -57 6 -84 27 -110 86
-16 35 -17 49 -8 76 32 99 171 137 233 64z"/>
<path d="M10245 4753 c-40 -55 -50 -93 -29 -100 7 -2 22 13 35 33 20 33 23 35
30 18 4 -10 8 -37 8 -60 1 -44 24 -74 57 -74 63 0 122 114 78 150 -13 11 -19
10 -36 -8 -18 -18 -19 -23 -8 -37 11 -13 11 -19 -3 -33 -24 -23 -37 -6 -46 61
-6 44 -33 109 -44 107 -1 -1 -20 -26 -42 -57z"/>
<path d="M8290 4625 c0 -18 -5 -25 -20 -25 -15 0 -20 -7 -20 -25 0 -17 5 -25
18 -25 16 0 18 -8 14 -90 l-4 -90 33 1 c30 0 42 10 107 90 39 48 72 95 72 103
0 18 -18 31 -45 32 -80 3 -83 4 -89 29 -5 20 -13 25 -36 25 -25 0 -30 -4 -30
-25z"/>
<path d="M4785 4483 c-152 -9 -175 -14 -175 -35 0 -19 4 -20 77 -13 l77 7 -32
-27 c-32 -26 -62 -73 -62 -95 0 -5 20 -10 45 -10 39 0 45 3 45 20 0 31 28 68
76 101 43 29 51 61 15 57 -9 -1 -38 -3 -66 -5z"/>
<path d="M9663 4451 c-8 -23 -15 -29 -32 -24 -16 4 -21 1 -21 -15 0 -11 -3
-28 -6 -37 -5 -11 0 -18 13 -21 29 -8 19 -64 -11 -64 -26 0 -66 -26 -66 -43 0
-7 10 -18 22 -26 19 -12 23 -11 35 5 18 24 23 15 14 -26 -5 -20 -13 -34 -20
-32 -29 6 -127 -69 -109 -83 2 -1 39 -14 82 -29 62 -20 82 -23 88 -13 14 22 4
40 -30 51 -35 12 -33 26 2 26 13 0 61 39 124 99 85 82 102 103 102 128 0 34
-6 38 -74 48 -44 7 -46 9 -46 40 0 31 -13 45 -44 45 -6 0 -17 -13 -23 -29z"/>
<path d="M10045 4468 c-51 -18 -96 -59 -118 -107 -25 -55 -30 -194 -9 -254 32
-90 104 -137 208 -137 144 0 219 79 198 210 -16 96 -157 162 -248 115 -16 -9
-30 -14 -32 -12 -2 2 1 18 6 37 14 50 37 70 82 70 32 0 41 -5 50 -26 11 -24
15 -25 70 -21 32 2 62 7 66 11 12 12 -32 80 -67 103 -28 19 -47 23 -105 22
-39 0 -84 -5 -101 -11z m138 -270 c24 -28 22 -93 -3 -118 -54 -54 -140 6 -125
87 11 59 87 78 128 31z"/>
<path d="M3255 4446 c-17 -12 -17 -14 9 -31 34 -22 30 -34 -17 -50 -47 -16
-108 -57 -104 -69 9 -27 34 -27 71 -2 22 14 56 31 78 38 34 10 41 9 56 -6 16
-17 16 -18 -5 -7 -46 24 -57 4 -22 -39 14 -17 22 -21 26 -12 2 6 13 12 23 12
30 0 34 20 11 50 l-21 29 27 3 c40 5 42 28 2 28 -22 0 -45 11 -74 35 -37 30
-45 32 -60 21z"/>
<path d="M8652 4401 c-44 -68 -122 -134 -198 -168 -34 -15 -65 -35 -67 -43 -3
-8 -8 -22 -11 -31 -5 -12 17 -26 101 -64 59 -27 115 -55 124 -62 22 -18 47
-16 53 5 13 43 14 73 3 71 -15 -3 -63 17 -105 43 l-33 21 43 25 c24 14 52 33
64 43 24 22 34 24 34 6 0 -23 38 -93 68 -124 21 -23 41 -33 78 -38 27 -4 54
-11 59 -16 6 -4 31 13 60 42 47 47 49 51 49 104 0 49 -3 59 -32 88 -28 27 -39
32 -81 32 -35 0 -58 -6 -79 -22 -16 -12 -32 -19 -36 -16 -13 13 -5 48 15 69
21 22 21 23 2 46 -10 13 -25 25 -33 27 -8 2 -22 5 -30 8 -10 3 -27 -13 -48
-46z"/>
<path d="M5353 4386 c-19 -20 -21 -25 -9 -42 18 -26 38 -147 31 -187 -4 -20
-1 -39 8 -51 13 -17 17 -15 93 34 43 28 80 53 82 55 3 3 -15 43 -24 54 -2 2
-25 -12 -52 -32 l-49 -35 -5 71 c-3 47 -13 87 -27 115 -12 23 -22 42 -24 41
-1 -1 -12 -11 -24 -23z"/>
<path d="M6234 4361 c-38 -23 -79 -76 -88 -113 -12 -53 26 -108 75 -108 36 0
84 23 93 45 5 15 7 15 22 1 18 -19 9 -40 -15 -33 -11 3 -25 -8 -39 -29 l-22
-34 46 0 c40 0 51 5 80 35 38 40 60 101 50 138 -8 33 -51 84 -87 102 -38 20
-78 19 -115 -4z"/>
<path d="M5079 4344 c-7 -9 -23 -20 -36 -25 -13 -5 -23 -17 -23 -28 0 -29 39
-100 60 -111 28 -15 70 -12 76 5 4 8 14 15 24 15 10 0 27 11 38 25 21 26 32
23 32 -8 0 -13 -5 -17 -15 -13 -22 8 -45 -42 -25 -54 36 -22 100 14 100 57 0
51 -39 96 -117 136 -41 22 -97 22 -114 1z"/>
<path d="M7484 4345 c-3 -8 -4 -39 -2 -70 3 -48 1 -55 -15 -55 -25 0 -68 -24
-94 -52 -36 -38 -75 -135 -76 -188 -1 -88 72 -149 165 -137 114 15 147 172 48
231 -16 9 -40 16 -54 16 -26 0 -26 1 -11 24 29 43 85 38 85 -8 0 -18 8 -25 39
-34 52 -16 51 -17 51 24 0 46 -13 68 -56 98 -25 17 -31 25 -20 29 8 3 17 -1
20 -10 10 -25 35 4 31 35 -2 15 -4 31 -4 35 -1 5 -7 7 -13 4 -7 -2 -26 13 -41
35 -31 41 -44 47 -53 23z"/>
<path d="M6786 4322 c-3 -5 -9 -28 -15 -50 -9 -41 -8 -43 27 -72 20 -17 48
-30 63 -30 53 0 90 78 54 114 -20 20 -74 11 -95 -16 -9 -10 -19 -16 -23 -12
-4 4 5 17 18 30 14 13 25 28 25 34 0 12 -47 14 -54 2z"/>
<path d="M9146 4291 c-35 -7 -61 -47 -70 -109 -6 -41 -4 -46 34 -84 37 -38 43
-40 90 -36 27 1 50 1 50 -2 0 -12 -32 -50 -50 -60 -29 -15 -70 4 -70 33 0 20
-6 25 -37 31 -64 10 -65 9 -58 -26 14 -66 84 -110 168 -107 48 2 56 6 95 47
72 76 91 193 43 260 -37 53 -107 72 -195 53z"/>
<path d="M1864 4238 c-9 -17 -22 -47 -29 -67 -8 -20 -14 -29 -14 -19 -1 20
-54 66 -86 74 -30 7 -65 -11 -65 -35 0 -24 36 -68 68 -84 29 -14 62 -12 62 4
0 5 -8 22 -17 36 -18 28 -10 27 26 -1 7 -6 23 -12 35 -13 17 -3 25 5 35 33
l13 36 18 -30 c10 -16 29 -37 41 -46 18 -12 21 -18 11 -28 -38 -38 11 -98 87
-106 45 -4 51 -2 66 22 15 22 16 32 7 52 -18 37 -55 51 -87 30 -14 -9 -25 -24
-25 -33 0 -14 -2 -15 -12 -4 -11 10 -10 14 5 22 18 11 24 39 7 39 -6 0 -10 6
-8 13 2 7 -13 28 -33 45 -20 18 -42 45 -49 62 -16 39 -35 38 -56 -2z"/>
<path d="M4457 4182 c-31 -33 -34 -49 -9 -55 16 -4 16 -5 -1 -6 -10 0 -30 11
-45 25 -22 20 -34 24 -62 20 -57 -9 -79 -65 -44 -114 14 -21 14 -22 -5 -22
-23 0 -23 -1 -25 57 -3 54 -11 62 -38 35 -20 -20 -21 -24 -8 -62 15 -44 83
-110 114 -110 10 0 14 -5 11 -11 -4 -6 -13 -8 -20 -5 -7 2 -16 -2 -19 -10 -8
-20 21 -29 40 -13 10 8 14 23 12 40 -4 23 1 30 23 39 15 7 30 18 33 25 4 11
13 12 38 4 63 -18 108 33 67 77 -19 21 -19 21 1 39 13 12 20 29 18 44 -4 38
-46 40 -81 3z"/>
<path d="M4890 4154 l0 -26 -34 21 c-58 36 -126 21 -126 -29 0 -45 66 -64 115
-33 13 8 25 9 35 3 8 -5 25 -10 38 -10 17 0 22 6 22 28 0 47 -11 72 -31 72
-14 0 -19 -7 -19 -26z"/>
<path d="M9775 4138 c-48 -26 -57 -61 -25 -96 41 -44 140 -13 140 43 0 28 -43
65 -74 65 -11 0 -30 -6 -41 -12z"/>
<path d="M8240 4038 c-82 -23 -120 -75 -120 -162 0 -77 32 -156 80 -200 35
-31 47 -36 90 -36 93 0 158 45 180 126 14 49 8 98 -21 164 -44 100 -112 136
-209 108z m144 -140 c24 -34 20 -73 -10 -97 -28 -22 -122 -45 -146 -36 -19 7
-38 48 -37 78 1 18 2 18 6 4 4 -15 14 -17 74 -15 74 3 84 13 54 52 -22 29 -19
36 14 36 20 0 35 -8 45 -22z"/>
<path d="M2370 3927 c0 -15 29 -57 30 -43 0 11 30 -14 30 -25 0 -14 -28 -11
-33 4 -3 9 -7 9 -20 -1 -13 -11 -14 -17 -5 -32 9 -14 9 -22 -2 -34 -12 -15
-14 -15 -32 1 -10 9 -18 24 -17 32 2 23 -12 61 -22 61 -15 0 -31 -41 -25 -65
3 -13 18 -37 32 -54 40 -47 114 -40 114 11 0 11 7 18 18 18 49 0 56 62 13 109
-30 32 -81 43 -81 18z"/>
<path d="M7155 3912 c-38 -26 -40 -30 -40 -78 -1 -43 -7 -62 -38 -108 -33 -50
-50 -103 -29 -94 44 19 306 176 309 186 3 7 1 18 -5 24 -6 6 -36 -5 -91 -36
-44 -25 -82 -46 -84 -46 -2 0 6 21 19 47 26 51 33 134 12 132 -7 0 -31 -13
-53 -27z"/>
<path d="M4051 3903 c1 -5 1 -19 0 -33 -1 -22 -3 -23 -12 -7 -5 9 -15 17 -21
17 -7 0 -6 -5 2 -15 21 -25 -5 -17 -30 10 -41 44 -110 22 -110 -35 0 -35 44
-90 73 -90 20 -1 20 -2 5 -11 -24 -14 -22 -26 6 -44 20 -14 29 -14 48 -4 30
16 38 28 38 62 0 15 4 27 10 27 5 0 12 17 15 38 3 20 8 49 10 65 4 22 1 27
-15 27 -11 0 -19 -3 -19 -7z"/>
<path d="M2002 3881 c-8 -4 -13 -17 -11 -27 1 -11 -1 -32 -6 -47 -6 -23 -3
-33 14 -50 19 -19 23 -20 31 -7 13 19 12 30 0 30 -5 0 -10 5 -10 10 0 6 7 10
15 10 8 0 15 -7 15 -15 0 -18 26 -20 34 -2 3 6 4 3 1 -9 -15 -59 43 -76 71
-21 9 17 21 35 26 38 6 4 7 15 4 26 -5 17 -16 20 -59 21 -28 0 -57 1 -63 1 -6
1 -10 11 -10 24 1 24 -28 34 -52 18z"/>
<path d="M9285 3850 c-72 -57 -162 -97 -262 -117 -84 -16 -133 -41 -133 -67 0
-13 227 -243 233 -236 1 3 15 22 30 42 l27 36 -78 71 -77 71 42 0 c39 0 73 19
73 40 0 5 20 21 46 36 36 21 54 26 88 22 39 -5 49 -1 87 29 24 19 46 37 48 39
5 5 -60 74 -68 73 -4 0 -28 -18 -56 -39z"/>
<path d="M6218 3737 c-96 -91 -109 -109 -88 -122 10 -6 89 50 119 84 11 14 12
11 7 -21 -8 -45 1 -107 20 -133 14 -19 15 -18 44 10 l29 30 -15 45 c-14 38
-14 55 -4 112 11 63 9 89 -8 88 -4 -1 -51 -43 -104 -93z"/>
<path d="M10981 3793 c-43 -37 -53 -95 -21 -135 28 -36 63 -36 95 -2 31 33 31
53 3 89 -20 25 -20 27 -2 23 10 -2 19 -8 20 -13 4 -46 38 -60 48 -20 19 75
-77 113 -143 58z"/>
<path d="M7752 3792 c-20 -3 -22 -7 -16 -55 8 -71 -19 -197 -54 -258 l-29 -50
-34 53 c-79 122 -219 130 -326 18 -30 -33 -40 -38 -68 -33 -46 7 -77 -12 -73
-45 2 -21 12 -30 47 -43 38 -14 46 -22 57 -57 17 -60 79 -149 125 -179 55 -36
149 -36 207 1 74 47 108 112 100 195 l-5 48 57 16 c31 9 69 17 85 18 17 0 57
8 90 18 l60 17 -2 38 c-2 22 -4 41 -6 42 -3 4 -159 -38 -189 -51 -22 -9 -23 1
-4 21 31 30 58 127 60 209 l1 80 -30 0 c-16 0 -40 -1 -53 -3z m-251 -374 c85
-103 99 -162 46 -202 -26 -19 -29 -19 -55 -4 -33 19 -119 151 -128 194 -5 25
-1 37 15 53 37 37 65 27 122 -41z"/>
<path d="M5473 3628 c-15 -14 -35 -22 -60 -22 -27 -1 -40 -7 -48 -21 -5 -11
-17 -20 -25 -20 -10 0 -14 -8 -12 -25 5 -34 30 -60 59 -60 32 0 87 54 80 79
-3 14 0 17 19 13 17 -3 24 0 24 12 0 9 -5 16 -12 16 -9 0 -9 3 0 12 13 13 16
38 4 38 -4 0 -17 -10 -29 -22z"/>
<path d="M4423 3613 c-61 -12 -118 -116 -91 -165 33 -59 97 -98 160 -98 64 0
131 109 108 176 -6 17 -30 43 -58 62 -45 30 -67 35 -119 25z"/>
<path d="M11120 3590 c-48 -9 -94 -34 -120 -67 -48 -61 1 -152 83 -153 45 0
73 25 82 73 7 35 -7 77 -25 77 -6 0 -10 4 -10 9 0 13 52 4 61 -10 4 -8 3 -19
-3 -27 -9 -10 -6 -18 11 -35 22 -22 22 -22 37 -2 19 24 12 79 -12 106 -23 25
-63 36 -104 29z"/>
<path d="M9453 3550 c-47 -11 -142 -59 -185 -93 -108 -86 -120 -203 -28 -281
84 -71 262 -57 375 30 l35 26 0 -41 c0 -78 -38 -120 -122 -136 -29 -6 -40 -3
-57 14 -12 12 -24 21 -29 21 -8 0 -154 -60 -161 -66 -7 -7 43 -55 73 -71 35
-18 144 -20 206 -3 66 18 150 63 195 106 33 31 46 37 76 35 29 -2 41 3 58 25
37 47 29 79 -40 145 -61 59 -62 60 -56 103 5 38 2 50 -24 90 -17 25 -33 46
-35 46 -3 0 -15 -12 -28 -27 -21 -25 -26 -26 -50 -15 -17 7 -35 30 -47 57
l-20 45 -52 -1 c-29 -1 -66 -4 -84 -9z m114 -145 c25 -28 30 -74 12 -107 -15
-27 -85 -58 -136 -58 -34 0 -46 5 -59 25 -26 40 -30 102 -8 127 49 54 150 62
191 13z"/>
<path d="M5749 3475 c-57 -31 -44 -91 31 -143 32 -21 39 -32 35 -49 -4 -18 -1
-23 15 -23 11 0 20 7 20 16 0 10 6 14 18 10 9 -2 27 -7 40 -11 12 -4 36 -4 52
0 40 9 41 46 3 82 l-28 26 32 -17 c47 -24 57 -20 37 14 -12 19 -43 42 -88 64
-86 43 -132 51 -167 31z"/>
<path d="M3296 3454 c-4 -15 -6 -27 -4 -28 60 -26 105 -57 122 -83 12 -19 29
-33 41 -33 17 0 24 12 38 65 19 71 17 85 -13 85 -15 0 -21 -9 -26 -40 l-7 -40
-38 34 c-33 30 -89 66 -102 66 -3 0 -8 -12 -11 -26z"/>
<path d="M5453 3396 c6 -44 6 -45 -21 -43 -21 2 -28 -3 -30 -20 -3 -19 1 -23
22 -23 14 0 26 -4 26 -10 0 -5 9 -10 20 -10 11 0 20 5 20 10 0 7 23 8 65 4 56
-6 65 -4 71 11 5 11 1 22 -9 30 -14 10 -14 12 4 23 10 7 19 19 19 28 0 8 -4
12 -10 9 -5 -3 -10 1 -10 9 0 21 -24 20 -41 -1 -11 -13 -11 -17 -1 -20 6 -3
12 -9 12 -15 0 -5 -22 6 -49 26 -27 20 -59 36 -71 36 -21 0 -22 -3 -17 -44z"/>
<path d="M8460 3386 c0 -13 -3 -37 -6 -53 -6 -30 -5 -30 48 -37 29 -4 91 -9
138 -12 89 -4 120 -17 85 -36 -36 -19 -119 -114 -158 -179 -44 -75 -85 -195
-71 -208 14 -13 134 -19 136 -7 0 6 2 22 3 36 3 34 44 127 75 170 61 85 124
160 135 160 23 0 73 65 77 100 l3 35 -155 16 c-85 10 -184 22 -220 28 -88 14
-90 14 -90 -13z"/>
<path d="M3977 3373 c-10 -10 -22 -13 -34 -8 -30 13 -47 15 -83 9 -30 -4 -39
-12 -52 -43 -38 -88 41 -213 96 -152 14 15 17 32 14 75 -3 61 0 67 20 35 10
-16 10 -24 2 -34 -13 -15 -4 -75 10 -75 5 0 14 13 21 29 10 23 17 28 30 20 9
-5 42 -12 73 -15 53 -6 57 -5 86 26 38 41 40 81 4 109 -52 41 -134 16 -137
-41 -2 -27 -19 -31 -40 -9 -10 10 -8 16 11 28 25 17 29 48 8 56 -7 3 -20 -2
-29 -10z"/>
<path d="M6542 3382 c-16 -5 -15 -21 2 -54 16 -30 2 -40 -22 -16 -18 18 -21 6
-6 -29 18 -43 76 -86 122 -88 50 -4 72 10 72 44 0 27 -41 94 -71 117 -19 14
-81 32 -97 26z"/>
<path d="M450 3348 c0 -13 10 -39 21 -58 19 -31 22 -33 34 -17 7 9 17 17 22
17 15 0 23 -38 9 -43 -7 -3 -4 -12 9 -25 15 -15 29 -18 57 -15 34 5 38 9 44
41 10 51 -5 67 -59 66 -37 0 -47 3 -51 19 -3 11 -11 17 -18 14 -8 -2 -22 1
-33 9 -26 20 -35 17 -35 -8z"/>
<path d="M10076 3354 c-11 -8 -32 -14 -48 -14 -26 0 -27 -2 -21 -32 3 -18 15
-39 25 -46 24 -17 20 -56 -6 -60 -11 -3 -25 3 -31 11 -12 16 -55 13 -55 -4 0
-15 54 -59 87 -70 37 -12 66 -1 83 32 16 29 -4 82 -45 118 -23 20 -30 31 -21
34 19 8 56 -21 56 -42 0 -10 11 -28 26 -41 21 -21 27 -22 34 -10 5 8 10 19 10
23 0 18 -32 75 -53 95 -20 18 -24 19 -41 6z"/>
<path d="M7993 3326 c-5 -7 -22 -20 -39 -29 -17 -9 -59 -46 -92 -82 -77 -84
-85 -124 -47 -216 4 -11 0 -18 -14 -22 -12 -3 -24 -13 -27 -22 -10 -25 22 -84
52 -97 23 -11 29 -10 48 12 21 25 21 25 56 8 45 -23 83 -23 148 1 112 41 202
145 202 233 0 72 -43 146 -112 194 -29 20 -52 27 -103 30 -46 2 -67 -1 -72
-10z m157 -124 c49 -40 22 -92 -94 -178 -69 -52 -116 -59 -141 -20 -10 15 -14
33 -9 50 10 43 163 166 205 166 9 0 27 -8 39 -18z"/>
<path d="M9008 3323 c-8 -10 -18 -31 -22 -46 -6 -24 -2 -30 24 -45 16 -9 30
-20 30 -23 0 -3 -11 -16 -25 -29 -20 -19 -35 -23 -69 -21 -50 3 -56 -3 -49
-41 4 -24 8 -26 38 -21 30 5 33 3 40 -26 11 -49 72 -80 102 -50 7 7 12 1 16
-20 13 -65 101 -44 139 34 19 38 20 47 8 74 -15 37 -26 39 -50 9 -12 -16 -15
-28 -9 -39 5 -10 3 -23 -5 -34 -18 -25 -39 -10 -33 24 4 18 -1 33 -15 48 -20
21 -20 26 -7 104 13 81 13 82 -10 100 -29 24 -83 25 -103 2z"/>
<path d="M10250 3274 c0 -10 -6 -14 -15 -10 -8 3 -18 0 -22 -7 -5 -7 -17 -17
-28 -23 -26 -14 -31 -58 -11 -89 25 -38 19 -42 -14 -10 -22 21 -33 26 -41 18
-14 -14 -4 -46 28 -83 l25 -31 -51 -54 c-28 -29 -51 -58 -51 -63 0 -6 -15 -13
-34 -16 -32 -6 -50 -25 -49 -53 1 -42 5 -53 28 -74 13 -13 25 -32 25 -43 0
-21 69 -156 80 -156 4 0 24 7 43 15 104 43 235 -24 269 -138 13 -43 26 -43 93
3 71 49 85 66 85 99 0 33 29 71 55 71 16 0 30 58 22 93 -4 14 18 -4 65 -53 68
-73 125 -172 158 -273 9 -28 22 -43 51 -58 l40 -20 -6 24 c-4 15 1 32 15 50
20 25 20 28 6 43 -43 43 10 104 90 104 20 0 31 15 70 96 50 106 51 101 -17
139 -32 17 -30 20 -89 -90 -24 -44 -54 -95 -66 -112 l-22 -33 -46 78 c-96 164
-185 266 -264 305 -33 16 -33 16 -60 -14 -24 -27 -30 -29 -55 -20 -16 6 -58
11 -95 11 -89 0 -155 -36 -202 -110 -36 -57 -47 -55 -69 9 -18 56 -13 81 23
117 37 37 79 45 116 22 17 -11 26 -6 75 44 30 30 55 58 55 61 0 3 -20 15 -45
26 -25 11 -44 24 -43 28 1 4 -6 20 -15 35 -14 21 -16 31 -8 47 15 28 15 29
-25 46 -30 12 -34 17 -25 34 9 15 7 20 -12 25 -33 9 -37 8 -37 -10z m228 -518
c31 -17 62 -65 62 -96 0 -36 -35 -89 -67 -101 -42 -16 -86 -3 -128 38 -34 33
-37 39 -31 77 12 78 96 120 164 82z"/>
<path d="M10824 3255 c-55 -38 -71 -147 -31 -205 46 -69 196 -110 266 -73 51
26 74 64 79 128 4 46 1 61 -19 90 -37 53 -102 69 -160 39 -37 -19 -74 -94 -65
-130 8 -30 -7 -31 -35 -3 -25 25 -21 61 9 74 12 5 22 19 22 30 0 11 3 30 6 43
6 19 3 22 -23 22 -16 0 -38 -7 -49 -15z"/>
<path d="M11318 3230 c-1 -5 -34 -41 -72 -80 -57 -59 -66 -72 -56 -85 7 -8 29
-15 49 -15 20 0 43 -6 50 -12 10 -11 15 -9 27 6 15 21 3 46 -22 46 -24 0 -15
16 37 65 48 45 50 48 33 66 -18 20 -40 25 -46 9z"/>
<path d="M5525 3184 c-30 -32 -30 -30 -4 -96 28 -72 102 -148 145 -148 40 0
64 27 64 73 0 29 -8 45 -39 77 -44 45 -71 50 -100 18 l-20 -21 -9 24 c-12 32
-4 52 20 45 26 -6 48 3 48 19 0 17 -14 26 -51 32 -22 3 -35 -2 -54 -23z"/>
<path d="M4374 3188 c-4 -6 -10 -25 -14 -42 l-8 -31 -7 33 c-9 36 -20 41 -35
13 -26 -49 -3 -154 42 -191 47 -39 119 -11 132 50 8 41 -11 123 -35 155 -21
26 -62 34 -75 13z"/>
<path d="M6962 3173 c-72 -35 -40 -112 41 -99 43 7 74 24 82 45 7 18 -14 43
-29 34 -7 -4 -6 -1 1 9 7 8 10 18 6 21 -12 12 -67 7 -101 -10z"/>
<path d="M11715 3055 c-44 -24 -86 -66 -101 -102 -27 -63 24 -133 97 -133 29
0 43 7 63 31 35 41 34 83 -2 119 -28 27 -28 29 -8 34 25 7 48 -12 41 -34 -3
-9 3 -24 15 -35 25 -23 50 -6 50 36 0 68 -92 118 -155 84z"/>
<path d="M7098 2953 c-20 -43 -42 -93 -48 -110 -14 -38 -23 -40 -67 -13 l-32
19 -21 -26 c-11 -14 -20 -31 -20 -39 0 -7 -3 -19 -6 -28 -4 -10 -1 -16 8 -16
8 0 25 -9 38 -20 22 -19 23 -30 5 -72 -5 -13 2 -21 30 -32 21 -9 39 -16 40
-16 1 0 8 14 15 30 7 17 14 30 15 30 2 0 43 -18 92 -41 144 -67 166 -74 206
-71 50 4 76 40 60 83 -11 28 -10 29 13 23 20 -5 24 -2 24 15 0 12 -11 33 -26
47 -20 21 -33 25 -63 22 -36 -3 -39 -1 -51 32 -7 19 -25 60 -40 91 -16 31 -34
75 -40 97 -9 29 -21 44 -47 56 -18 9 -37 16 -41 16 -5 0 -24 -35 -44 -77z"/>
<path d="M6520 2957 c-13 -7 -29 -26 -34 -42 -4 -17 -12 -38 -17 -47 -18 -35
-10 -77 17 -94 52 -35 113 17 121 103 7 71 -33 107 -87 80z"/>
<path d="M5758 2859 c-18 -14 -28 -30 -28 -47 0 -18 -3 -23 -10 -16 -8 8 -7
19 1 38 16 34 6 43 -26 22 -35 -23 -34 -67 3 -96 22 -18 37 -21 78 -18 55 5
69 -4 80 -48 11 -45 40 -65 101 -71 l56 -6 -6 31 c-4 17 -2 32 4 34 6 2 7 10
4 19 -8 21 -65 23 -65 3 0 -8 -4 -14 -9 -14 -5 0 -16 -3 -25 -6 -13 -5 -14 2
-9 44 6 50 5 50 -23 54 -23 2 -30 9 -34 32 -3 19 -16 36 -35 47 -29 17 -31 17
-57 -2z"/>
<path d="M295 2851 c-17 -3 -30 -13 -30 -21 0 -8 -4 -18 -9 -21 -5 -4 1 -15
12 -25 l21 -17 -20 -29 c-11 -15 -17 -32 -14 -38 11 -17 33 -11 40 11 6 17 9
19 16 8 5 -9 3 -17 -6 -22 -17 -9 -20 -43 -6 -51 18 -12 39 5 34 27 -4 20 -3
20 7 5 14 -22 26 -23 34 -2 4 10 -4 29 -20 47 l-27 32 24 3 c13 2 28 11 33 19
6 12 10 13 16 3 9 -14 40 -7 40 9 0 19 -32 42 -44 32 -8 -7 -20 -3 -39 14 -14
14 -27 24 -29 24 -2 -1 -16 -4 -33 -8z"/>
<path d="M7792 2753 c-32 -19 -42 -29 -36 -42 30 -74 27 -148 -13 -248 -19
-49 -22 -67 -13 -83 6 -11 13 -20 16 -20 9 0 68 32 84 45 8 7 63 39 123 71 59
31 107 63 107 69 0 7 -6 18 -14 24 -11 10 -33 3 -104 -33 -49 -26 -92 -46 -95
-46 -2 0 2 18 9 41 22 64 28 153 14 204 -7 25 -18 45 -24 44 -6 -1 -30 -12
-54 -26z"/>
<path d="M8465 2675 c-30 -29 -32 -65 -6 -122 23 -49 53 -63 82 -37 22 19 26
83 7 102 -6 6 -9 15 -5 19 13 12 31 -16 34 -54 3 -48 19 -64 31 -32 26 67 -21
149 -84 149 -24 0 -43 -8 -59 -25z"/>
<path d="M5319 2511 c-16 -16 -29 -38 -29 -48 0 -10 -7 -29 -16 -42 -10 -13
-17 -44 -17 -73 -1 -46 2 -54 33 -80 39 -32 59 -34 100 -13 82 43 73 185 -12
185 -26 0 -28 2 -18 20 13 23 50 27 50 5 0 -14 37 -35 61 -35 17 0 9 57 -12
84 -17 21 -29 26 -65 26 -37 0 -51 -6 -75 -29z"/>
<path d="M6880 2458 c-44 -44 -63 -75 -77 -128 -26 -97 -9 -160 41 -160 45 0
120 90 136 163 6 31 6 32 18 10 15 -28 -5 -86 -36 -102 -11 -6 -27 -29 -36
-51 -20 -51 -20 -50 4 -50 32 0 96 72 119 134 38 101 25 168 -39 201 -49 25
-94 19 -130 -17z"/>
<path d="M9710 2449 c-45 -18 -60 -40 -60 -84 0 -56 25 -80 76 -72 20 3 45 14
55 23 17 15 19 16 25 0 8 -22 -14 -47 -40 -45 -29 2 -39 0 -55 -10 -25 -16 6
-41 51 -41 50 0 98 43 98 88 0 46 -47 122 -86 138 -18 8 -35 14 -36 13 -2 0
-14 -5 -28 -10z"/>
<path d="M8150 2425 c-72 -34 -104 -79 -124 -176 -12 -60 -13 -83 -4 -112 12
-40 77 -107 103 -107 19 0 19 -14 -1 -31 -8 -7 -22 -26 -31 -43 -14 -27 -14
-31 3 -43 24 -18 30 -17 67 11 18 13 53 33 79 44 46 20 48 20 60 3 52 -72 178
-47 235 46 37 60 67 147 61 178 -4 18 0 25 18 29 25 7 38 34 28 60 -7 18 -46
21 -76 5 -14 -8 -23 -8 -31 0 -13 13 -37 -4 -37 -25 0 -19 -10 -17 -40 6 -14
11 -32 20 -40 20 -16 0 -65 -41 -73 -62 -4 -10 -10 -8 -21 6 -18 22 -18 22
-36 -22 -14 -37 -45 -62 -74 -62 -11 0 -37 12 -58 26 -50 35 -53 81 -8 126 26
26 37 30 68 26 37 -5 37 -5 55 46 10 28 19 56 20 61 5 22 -88 15 -143 -10z"/>
<path d="M6124 2390 c-40 -26 -86 -120 -92 -188 -6 -68 21 -102 79 -102 74 0
154 116 154 222 -1 47 3 59 20 67 18 10 18 11 -4 5 -16 -4 -21 -3 -17 5 4 6
-10 3 -31 -6 -47 -22 -91 -71 -120 -131 l-22 -47 0 33 c-1 23 7 41 25 59 22
22 54 80 54 98 0 10 -15 5 -46 -15z"/>
<path d="M5629 2341 c-43 -42 -49 -53 -49 -90 0 -67 49 -146 119 -188 60 -38
116 -27 174 34 54 57 54 118 1 195 -43 61 -100 98 -152 98 -40 0 -50 -5 -93
-49z m118 -58 c57 -61 85 -109 79 -131 -14 -43 -53 -35 -114 22 -59 56 -79
115 -44 135 29 17 43 13 79 -26z"/>
<path d="M11510 2281 c0 -24 -4 -31 -20 -31 -16 0 -20 -7 -20 -30 0 -20 5 -30
15 -30 12 0 15 -16 15 -85 l0 -85 29 0 c26 0 36 10 85 88 33 51 56 98 56 115
0 26 -2 27 -49 27 -47 0 -50 2 -53 28 -2 21 -9 28 -30 30 -25 3 -28 0 -28 -27z"/>
<path d="M7173 2283 c-43 -4 -51 -15 -34 -42 6 -9 19 -12 36 -9 l28 6 -7 -57
c-3 -31 -7 -65 -9 -76 -1 -15 5 -21 26 -23 24 -3 27 0 27 27 l0 30 49 -6 c42
-5 50 -3 64 17 16 24 9 54 -17 73 -6 4 1 5 17 1 39 -9 36 21 -5 46 -33 20 -68
22 -175 13z"/>
<path d="M10615 2198 c-11 -49 -21 -633 -10 -640 5 -4 24 -8 41 -8 29 0 32 3
38 38 3 20 6 64 6 98 0 33 3 108 6 166 l7 106 39 -58 c78 -117 225 -230 301
-230 24 0 27 4 27 34 0 18 3 60 6 93 l7 60 -48 12 c-27 7 -67 23 -90 37 -49
28 -177 143 -170 153 2 4 -12 27 -31 51 -20 25 -38 57 -41 72 -4 21 -11 28
-28 28 -13 0 -30 3 -39 6 -10 4 -17 -2 -21 -18z"/>
<path d="M7529 2166 c-3 -3 -43 -13 -89 -22 -47 -9 -88 -19 -91 -23 -3 -3 -2
-21 3 -38 10 -38 27 -41 102 -19 44 13 47 13 41 -2 -19 -46 -33 -270 -19 -294
7 -11 45 -10 63 1 11 7 11 15 2 41 -16 48 -14 97 10 186 12 44 22 99 22 124 2
38 -1 45 -18 48 -12 2 -23 1 -26 -2z"/>
<path d="M9660 2149 c-67 -28 -87 -85 -56 -161 25 -58 88 -70 159 -29 76 43
21 133 -73 119 -33 -5 -36 9 -6 26 14 8 20 8 23 -1 6 -16 59 -17 69 -2 10 16
-26 48 -61 54 -17 2 -41 0 -55 -6z"/>
<path d="M10295 2068 c-33 -5 -76 -11 -96 -12 -20 -2 -51 -12 -70 -22 -24 -13
-53 -17 -101 -16 -86 2 -167 -13 -185 -36 -7 -9 -20 -29 -29 -45 -14 -26 -13
-29 13 -52 15 -14 69 -57 120 -96 51 -38 95 -74 98 -80 4 -5 -7 -27 -24 -48
-17 -21 -31 -43 -31 -48 0 -10 113 -103 124 -103 2 0 19 20 37 45 18 25 37 45
43 45 6 0 24 -11 41 -24 l30 -24 38 40 c21 22 37 41 35 43 -2 2 -20 17 -40 33
l-38 30 33 43 c18 24 43 61 56 81 29 49 77 88 107 88 26 0 29 7 14 30 -6 10
-4 22 6 38 9 13 12 27 7 31 -49 42 -94 71 -109 70 -11 -1 -46 -6 -79 -11z"/>
<path d="M6168 1993 c-12 -3 -18 -14 -18 -31 -1 -40 -31 -100 -84 -164 -25
-31 -46 -62 -46 -69 0 -8 -6 -7 -17 4 -10 8 -40 23 -67 32 -40 14 -53 14 -78
4 -51 -21 -88 -58 -88 -88 0 -35 31 -66 48 -49 7 7 12 8 12 4 0 -5 7 -3 15 4
8 7 15 25 15 41 0 52 81 52 88 0 3 -18 10 -21 49 -21 42 0 45 2 41 23 -4 20 0
22 44 25 42 2 54 -2 101 -37 109 -81 176 -94 228 -42 47 47 39 102 -25 169
-22 24 -30 41 -28 61 4 33 -17 54 -58 55 -17 1 -30 7 -30 14 0 6 -4 12 -10 12
-5 0 -10 14 -10 30 0 27 -3 30 -32 29 -18 -1 -41 -3 -50 -6z"/>
<path d="M8720 1980 c-13 -8 -13 -11 1 -22 8 -7 32 -37 52 -66 l37 -52 -27 7
c-38 11 -141 9 -152 -3 -6 -5 -1 -19 12 -35 21 -26 24 -27 74 -16 39 8 64 7
106 -2 79 -20 86 -12 39 42 -22 26 -56 72 -74 102 -33 56 -42 62 -68 45z"/>
<path d="M11232 1947 c-55 -58 0 -137 95 -137 47 0 57 7 71 48 14 42 9 54 -33
76 -32 17 -36 18 -59 3 -13 -9 -28 -26 -31 -38 -5 -14 -10 -18 -17 -11 -7 7
-3 17 11 31 12 12 21 28 21 36 0 23 -34 18 -58 -8z"/>
<path d="M11594 1900 c-41 -16 -74 -68 -74 -116 0 -38 6 -50 43 -89 24 -25 52
-45 63 -45 17 -1 17 -2 -5 -20 -13 -11 -31 -20 -41 -20 -26 0 -52 29 -47 51 3
12 -7 26 -35 44 -47 31 -58 24 -58 -37 0 -93 140 -169 229 -124 38 20 99 90
122 140 34 75 23 130 -37 179 -53 44 -110 57 -160 37z"/>
<path d="M8320 1849 c-42 -50 -48 -63 -49 -111 -1 -62 52 -99 114 -78 95 31
144 200 57 200 -15 0 -38 -7 -51 -16 l-23 -16 16 31 c16 30 16 31 -6 31 -14 0
-36 -15 -58 -41z"/>
<path d="M5914 1632 c-6 -4 -13 -14 -16 -23 -9 -23 -70 -34 -84 -14 -10 13
-13 13 -28 -3 -49 -55 21 -132 120 -132 41 0 72 14 96 44 24 28 23 33 -9 39
-16 3 -36 9 -45 12 -13 5 -18 2 -18 -8 0 -18 -30 -30 -54 -21 -37 14 -12 54
34 54 15 0 29 25 30 53 0 9 -12 9 -26 -1z"/>
<path d="M7811 1631 c-12 -8 -12 -11 1 -24 8 -8 25 -17 38 -19 13 -1 25 -9 28
-17 3 -10 -2 -12 -19 -8 -13 3 -31 2 -39 -4 -13 -8 -13 -11 3 -20 9 -5 17 -17
17 -24 0 -24 -30 -17 -39 8 -18 47 -61 60 -61 18 0 -22 17 -37 45 -43 12 -2
21 -13 23 -26 2 -16 10 -22 27 -22 26 0 56 35 49 55 -6 14 33 28 41 14 3 -4
-12 -27 -35 -50 -30 -31 -40 -49 -40 -74 0 -58 65 -115 131 -115 23 0 42 10
71 40 36 35 40 44 36 80 -2 24 1 41 8 44 14 5 35 93 27 113 -4 9 -14 12 -27 9
-16 -4 -25 2 -38 24 -9 17 -25 30 -34 30 -13 0 -15 -7 -9 -37 6 -37 6 -37 -10
-15 -20 27 -35 28 -35 2 0 -11 -7 -20 -15 -20 -8 0 -15 7 -15 15 0 8 5 15 10
15 6 0 10 11 10 25 0 28 -21 33 -40 10 -11 -13 -15 -12 -37 5 -28 22 -50 25
-72 11z"/>
<path d="M9795 1556 c-13 -13 -27 -37 -31 -53 -4 -15 -16 -39 -26 -53 -10 -14
-21 -47 -24 -75 -4 -27 -12 -56 -18 -64 -6 -8 -17 -26 -23 -40 -13 -26 -13
-26 -7 7 7 42 -18 44 -36 2 -18 -43 -10 -175 13 -197 16 -16 15 -19 -16 -51
-28 -29 -32 -39 -31 -85 2 -92 91 -195 177 -204 106 -11 187 118 122 195 -24
28 -24 32 -10 65 8 19 11 37 8 41 -4 3 5 6 19 6 30 0 84 35 112 73 27 37 28
129 2 172 -22 38 -74 75 -105 75 -43 0 -4 27 49 34 55 7 60 17 34 67 -9 19
-32 38 -57 49 -23 11 -48 28 -55 39 -17 29 -66 28 -97 -3z"/>
<path d="M8545 1468 c-34 -30 -44 -88 -20 -124 37 -58 158 -83 208 -44 62 49
40 133 -42 169 -65 28 -113 27 -146 -1z"/>
<path d="M9319 1186 c-15 -14 -29 -23 -32 -20 -2 3 -4 -30 -3 -73 l1 -78 -53
-59 c-54 -60 -56 -72 -12 -78 17 -2 26 -10 28 -25 2 -13 10 -23 18 -23 27 0
75 65 53 72 -6 2 -7 20 -4 44 7 38 8 40 39 36 27 -3 36 1 51 24 25 38 37 95
23 111 -16 20 -3 26 21 11 31 -19 35 -44 12 -75 -13 -18 -19 -36 -15 -50 8
-30 17 -29 48 8 18 21 26 42 26 69 0 82 -33 116 -122 126 -47 5 -56 3 -79 -20z"/>
<path d="M8904 1169 c-16 -5 -41 -20 -53 -33 -21 -22 -23 -32 -18 -82 7 -68
34 -102 90 -111 l37 -6 0 42 c0 33 -4 41 -18 41 -34 0 -58 49 -32 65 36 22 63
14 148 -44 49 -34 103 -63 124 -67 l38 -6 -6 43 c-3 24 -8 71 -12 104 -7 59
-8 60 -40 63 l-33 3 7 -63 7 -63 -34 27 c-111 84 -152 102 -205 87z"/>
<path d="M10967 1070 c-50 -15 -114 -77 -146 -142 -53 -106 -36 -182 64 -287
99 -104 199 -126 300 -67 80 47 145 144 145 216 0 79 -61 155 -134 167 -79 13
-204 -64 -230 -141 l-14 -40 -21 42 c-29 57 -27 88 9 124 26 25 36 29 63 24
35 -7 53 7 89 64 13 21 13 27 2 38 -15 13 -84 15 -127 2z m209 -264 c42 -42
43 -69 5 -107 -41 -41 -90 -40 -125 2 -34 40 -33 74 3 110 40 39 74 38 117 -5z"/>
<path d="M11390 971 c-78 -25 -85 -29 -82 -51 4 -34 19 -40 63 -22 22 8 41 13
44 10 3 -3 0 -29 -5 -59 -11 -56 -4 -169 11 -169 4 0 19 4 32 9 23 9 24 12 16
56 -11 61 -4 148 15 177 14 22 12 79 -3 77 -3 0 -44 -13 -91 -28z"/>
</g>
</svg>
