<svg version="1" xmlns="http://www.w3.org/2000/svg" width="682.667" height="682.667" viewBox="0 0 512.000000 512.000000"><path d="M161.6 128.2c-.3 1.3-.6 59.8-.6 130 0 115.7.1 127.8 1.6 129.3 1.3 1.3 3.7 1.5 14.3 1.3l12.6-.3.3-131.3.2-131.2h-13.9c-13.5 0-13.9.1-14.5 2.2zM322.7 126.6c-.9.9-.9 258.6-.1 260.8.5 1.4 2.7 1.6 14 1.6h13.3l.6-3.2c.3-1.8.4-60.9.3-131.3l-.3-128-13.6-.3c-7.4-.1-13.8.1-14.2.4zM196.7 169.6c-.4.4-.7 10.8-.7 23.1v22.4l5.9 6.2c3.2 3.4 13.6 14.7 23.2 25.2 9.5 10.4 19.1 21 21.4 23.5 4.3 4.7 23.9 26.2 31.1 34 10.3 11.4 27.2 29.7 33 35.8l6.3 6.7.1-21.7v-21.7l-10.3-11.3c-5.6-6.2-16.8-18.7-24.8-27.8-21.5-24.3-48.1-54.1-66.3-74.4-8.9-9.9-16.6-18.6-17.1-19.3-.6-.8-1.4-1.1-1.8-.7zM234.6 457.4c1.6 1.1 4.2 1.3 11 .9 4.9-.3 9.9-.5 11.2-.6 1.2-.1 2.2-.4 2.2-.9 0-.4-3.2-.7-7-.7-5 .1-6.8.4-6.4 1.2.5.8.2.7-.7-.1-.7-.6-3.8-1.2-6.8-1.2-5.1 0-5.4.1-3.5 1.4zM260.6 456.8c-1.1 1.7 3.3 2.1 4.6.3 1.1-1.4 1.1-1.4-.3-.4-1.1.9-1.9.9-2.6.2-.7-.7-1.3-.7-1.7-.1zM284.6 456.8c-.3.5.1.9.9.9s1.2-.4.9-.9c-.3-.4-.7-.8-.9-.8-.2 0-.6.4-.9.8z"/></svg>